<?xml version="1.0" encoding="utf-8"?>
<!-- Generator: Adobe Illustrator 25.2.0, SVG Export Plug-In . SVG Version: 6.00 Build 0)  -->
<svg version="1.1" id="Vortex-logo-stacked" alt="Vortex Acquisitions, LLC."
	xmlns="http://www.w3.org/2000/svg"
	xmlns:xlink="http://www.w3.org/1999/xlink" x="0px" y="0px" viewBox="0 0 960 960" style="enable-background:new 0 0 960 960;" xml:space="preserve">
	<g>
		<g class="va-1" fill="#2b6583">
			<g>
				<path d="M346.26,314.12c6.46,17.11,11.13,29.47,12.24,32.17c2.4,5.82,9.62,16.14,30.56,16.14
				c9.06,0,20.7-1.93,35.62-7l0.33-0.11l-0.13-0.32c-0.53-1.33-52.84-133.56-56.63-143.96c-1.88-5.15-1.55-10.61,0.92-15.38
				c2.68-5.18,7.71-9,14.13-10.75c7.19-1.4,8.89-1.63,8.91-1.63l0.29-0.04v-10.78H275.59l0,11.26l0.34-0.01
				c0.17,0.01,18.73-0.07,28.61,22.47C311.44,221.91,332.39,277.4,346.26,314.12z"/>
				<path d="M473.81,186.94c4.02,10.06,46.26,115.77,47.88,119.28l0.16,0.35l0.32-0.21c18.16-11.82,42.03-37.74,42.27-38
				l0.14-0.15l-0.08-0.19c-0.36-0.9-35.75-90.47-42.49-110.27c-1.53-4.49-1.21-8.53,0.94-12.01c5.8-9.38,23.1-11.84,23.27-11.86
				l0.29-0.04v-12.27H420.57v10.98l0.26,0.05c10.16,2.11,16.48,5.55,19.32,10.51c2.29,4,2.32,9.12,0.1,15.63
				c-4.21,12.36-38.97,99.12-39.32,100l-0.05,0.12l20.48,55.17L473.81,186.94z"/>
				<path d="M377.88,471.14c-6.11-3.58-5.74-12.86-5.73-12.95l0.01-0.23l-0.21-0.09c-19.31-8.19-34.06-24.69-34.2-24.86
				l-0.44-0.49l-0.14,0.64c-1.81,8.58-7.9,28.61-15.15,35.75c-7.38,7.28-20.88,7.15-21.01,7.15l-0.34-0.01v12.71h96.17v-12.64
				l-0.3-0.03C396.42,476.1,384.1,474.79,377.88,471.14z"/>
				<path d="M604.97,361.13c20.94-27.92,26.22-48.72,28.63-65.38l0.37-2.54l-1,2.36c-0.06,0.13-5.65,13.13-21.72,31.92
				c-14.83,17.35-41.86,43.32-86.43,68.54c-44.57,25.22-86.34,33.64-113.54,36.27c-29.46,2.84-48.64-0.32-48.83-0.35l-0.35-0.06
				l-0.03,0.35c-0.02,0.16-0.32,3.91,3.81,8.39c6.49,7.04,23.4,15.3,67.17,14.71c23.84-1.09,58.9-10.9,72.45-17.37
				c-2.15,2.98-8.99,11.76-20.11,19.62c-12.51,8.84-33.13,18.27-60.39,13.01l-0.84-0.16l0.51,0.68c0.42,0.57,42.22,57.01,54.6,69.39
				l0.38,0.38l0.17-0.52c0.09-0.28,9.24-28.19,29.24-60.4c16.13-25.98,34.36-49.4,42.14-59.4c1.97-2.53,3.16-4.06,3.47-4.55
				c0.35-0.55,2.33-2.46,5.32-5.35C569.19,401.81,588.33,383.33,604.97,361.13z"/>
				<path d="M668.3,476.39c-0.18,0.02-18.94,1.86-27.69-18.35c-8.85-20.44-32.24-77.41-32.47-77.98l-0.21-0.51
				l-0.35,0.42c-0.18,0.22-18.6,22.34-40.18,41.6l-0.18,0.16l0.09,0.22c0.06,0.14,6.01,14.43,9.9,28.95
				c2.23,8.32,1.68,15.48-1.51,19.64c-1.81,2.36-4.35,3.61-7.34,3.61h-9.04v14.31h109.35v-12.11L668.3,476.39z"/>
				<path d="M591.56,218c5.45,9.65,4.91,22.59-1.66,39.57c-15.25,39.39-69,70.56-91.96,83.88l-0.28,0.16
				c-25.61,14.85-77.14,38.33-117.19,38.33c-3.05,0-6.05-0.14-8.95-0.42c-22.11-2.19-34.24-12.31-40.52-20.42
				c-6.81-8.79-8.41-17.17-8.43-17.26l-0.22-1.17l-0.42,1.11c-5.59,14.82-4.81,31.3,2.19,46.42c6.24,13.47,15.39,21.85,21.24,23.93
				c8.18,3.02,18.22,4.5,29.81,4.5c33.74,0,80.56-12.55,132.31-36.06c27.67-12.57,54.24-30.7,76.85-52.42
				c17.48-16.8,32.45-35.83,40.05-50.91c6.11-12.13,8.51-24.77,6.93-36.57c-1.38-10.29-5.71-19.4-12.18-25.64
				c-28.64-27.23-69.73-19.35-70.14-19.27l-1.73,0.35l1.74,0.3C571.98,200.41,585.5,207.27,591.56,218z"/>
			</g>
			<path d="M479.81,40.11l249.18,142.6v288.65L479.81,617.48L231.01,471.37V182.69L479.81,40.11 M479.79,5.71
			L201.17,165.4v323.05l278.63,163.63l279.04-163.63V165.4L479.79,5.71L479.79,5.71z"/>
		</g>
		<g class="va-2" fill="#1B2D3B">
			<g>
				<path d="M164.43,705.42c-15.59,1.59-20.32,3.63-29.3,25.17c-7.32,17.46-31.66,73.69-49.14,116.32H73
				c-6.61-17.69-37.33-95.46-47.25-119.5c-7.32-17.01-10.39-20.63-25.75-22v-8.39h72.06l-0.24,8.39
				c-17.24,2.27-17.24,3.85-13.47,13.38c7.32,19.05,25.04,65.76,33.08,85.71c14.17-32.43,26.93-63.26,32.36-78
				c5.91-15.65,4.26-19.05-15.59-21.09v-8.39h56.23V705.42z"/>
				<path d="M250.64,693.85c43.71,0,79.38,30.61,79.38,75.28c0,48.3-35.91,78.68-80.56,78.68
				c-47.25,0-81.51-33.11-81.51-76.87C167.95,732.17,196.77,693.85,250.64,693.85z M247.09,703.83c-24.1,0-41.81,22.68-41.81,62.81
				c0,38.32,15.83,71.2,47.72,71.2c22.44,0,39.93-20.86,39.93-62.36C292.93,730.59,274.5,703.83,247.09,703.83z"/>
				<path d="M499.14,845.78c-1.42,0-4.25,0-7.09-0.23c-30-1.36-38.75-7.48-45.83-17.01
				c-9.45-12.47-16.3-26.3-24.34-39.91c-3.54-6.12-6.85-7.48-14.41-7.48l-4.72-0.23v33.11c0,18.37,2.36,19.95,20.08,22v8.39h-72.29
				v-8.39c17.95-1.81,20.08-3.63,20.08-22v-86.85c0-17.91-2.36-20.41-20.08-21.77v-8.39h68.51c21.03,0,33.07,2.27,42.76,8.62
				c9.45,6.12,15.83,16.1,15.83,30.16c0,20.18-13.94,30.84-29.53,36.73c3.54,6.8,12.76,21.54,19.84,31.97
				c8.27,12.47,13.47,18.59,17.96,23.58c5.43,5.9,8.03,7.71,14.88,9.98L499.14,845.78z M409.13,771.63c10.16,0,17.96-1.59,23.15-5.9
				c7.8-6.35,11.1-14.97,11.1-26.53c0-24.04-14.41-32.65-27.64-32.65c-6.38,0-9.45,0.91-10.86,2.27c-1.65,1.36-2.13,4.08-2.13,8.62
				v54.19H409.13z"/>
				<path d="M632.6,736.26c-2.6-10.43-7.79-19.05-10.16-22.22c-4.26-4.76-6.15-6.58-20.08-6.58h-15.12v106.57
				c0,19.05,2.36,20.41,23.39,22v8.39H532.2v-8.39c20.08-1.59,22.21-2.95,22.21-22V707.46h-14.41c-13.23,0-17.01,2.04-21.5,7.48
				c-3.31,4.31-6.61,12.47-9.69,21.54h-8.98c1.65-16.55,3.31-34.24,3.78-45.12h7.09c3.54,5.22,6.38,5.67,13.47,5.67h94.5
				c6.38,0,9.69-1.36,13.7-5.67h6.86c0.24,9.52,1.18,29.48,2.36,44.22L632.6,736.26z"/>
				<path d="M787.8,805.87c-1.18,6.12-7.8,32.2-9.93,38.55H655.26v-8.16c21.49-2.04,22.91-3.17,22.91-22.22v-86.62
				c0-19.27-2.84-20.63-18.9-22v-8.39h76.78c24.81,0,33.08-0.23,36.39-0.45c0.24,4.08,1.42,22.68,2.36,36.73l-9.22,1.13
				c-2.13-7.71-6.14-17.01-10.16-21.09c-4.26-4.54-7.33-5.9-19.38-5.9h-15.36c-8.97,0-9.92,0.45-9.92,8.16v47.39h23.15
				c13.23,0,15.59-3.4,19.14-19.5h9.21v50.57h-9.21c-3.78-16.78-5.67-19.5-19.38-19.5h-22.91v39c0,15.65,0.47,20.41,15.12,20.63
				h16.78c13.23,0,16.78-1.59,21.97-7.71c5.91-6.58,10.64-14.97,14.41-22.68L787.8,805.87z"/>
				<path d="M882.98,844.42v-8.39c16.07-2.04,15.36-5.67,11.34-12.92c-2.36-3.85-7.32-11.79-24.33-39.91
				c-10.87,16.1-21.27,30.84-25.52,38.77c-5.43,9.3-4.25,11.79,12.29,14.06v8.39h-58.84v-8.39c13.24-1.13,21.74-4.76,28.6-12.7
				c8.5-9.98,23.62-29.93,37.09-49.43c-11.1-17.91-21.03-33.79-33.08-52.38c-6.37-10.2-11.57-14.29-29.3-16.1v-8.39h73.71v8.39
				c-14.17,1.59-14.88,4.08-11.57,10.66c3.78,7.03,11.34,19.27,21.03,34.24c7.08-9.3,15.83-22.68,21.49-32.2
				c4.49-7.94,2.6-10.2-12.05-12.7v-8.39h57.17v8.39c-15.36,1.81-22.44,4.08-31.42,14.97c-8.03,10.2-17.24,22.9-28.82,38.55
				c13.7,20.86,24.58,38.32,38.52,58.5c9.45,14.74,14.41,17.01,30.71,18.59v8.39H882.98z"/>
			</g>
		</g>
		<g class="va-3" fill="#2b6583">
			<g>
				<path d="M66.08,951.29l21.26-50.91h7.74l21.26,50.91h-9.64l-4.16-10.15H79.89l-4.16,10.15H66.08z M82.73,933.6h16.95
				l-8.48-20.74L82.73,933.6z"/>
				<path d="M128.73,925.86c0-3.65,0.69-7.11,2.08-10.37s3.32-6.09,5.81-8.48c2.48-2.38,5.38-4.23,8.69-5.55
				c3.31-1.31,6.8-1.98,10.45-1.98c3.9,0,7.61,0.82,11.14,2.45c3.53,1.63,6.54,3.85,9.02,6.69l-6.21,5.33
				c-1.7-1.95-3.77-3.47-6.21-4.56c-2.43-1.1-5.01-1.65-7.74-1.65c-2.48,0-4.83,0.45-7.05,1.35c-2.22,0.91-4.14,2.19-5.77,3.84
				c-1.63,1.66-2.9,3.6-3.8,5.81c-0.9,2.21-1.35,4.59-1.35,7.12c0,2.54,0.45,4.91,1.35,7.13c0.9,2.21,2.17,4.14,3.8,5.77
				c1.63,1.64,3.55,2.9,5.77,3.8c2.21,0.9,4.56,1.35,7.05,1.35c2.73,0,5.34-0.56,7.82-1.68c2.48-1.12,4.58-2.68,6.28-4.67l6.13,5.33
				c-2.48,2.93-5.48,5.2-8.99,6.84c-3.51,1.63-7.25,2.44-11.25,2.44c-3.65,0-7.13-0.65-10.45-1.97s-6.21-3.16-8.69-5.52
				c-2.48-2.35-4.42-5.17-5.81-8.43C129.42,932.98,128.73,929.52,128.73,925.86z"/>
				<path d="M188.7,925.86c0-3.6,0.69-7.03,2.08-10.3c1.39-3.25,3.32-6.09,5.81-8.47c2.48-2.39,5.38-4.25,8.69-5.59
				c3.31-1.34,6.77-2.01,10.38-2.01c3.6,0,7.06,0.67,10.37,2.01c3.31,1.34,6.2,3.2,8.66,5.59c2.46,2.38,4.38,5.21,5.77,8.47
				c1.39,3.27,2.08,6.7,2.08,10.3c0,3.32-0.61,6.46-1.83,9.46c-1.22,3-2.88,5.62-4.97,7.86l4.97,5.99l-6.14,5.12l-5.11-6.07
				c-1.9,1.27-4.04,2.23-6.43,2.88c-2.39,0.66-4.85,0.99-7.38,0.99c-3.61,0-7.06-0.65-10.38-1.98c-3.31-1.31-6.21-3.16-8.69-5.55
				c-2.48-2.39-4.42-5.19-5.81-8.44C189.39,932.89,188.7,929.47,188.7,925.86z M197.68,925.86c0,2.49,0.45,4.84,1.35,7.06
				c0.9,2.21,2.18,4.14,3.84,5.77c1.65,1.63,3.58,2.9,5.77,3.8c2.19,0.9,4.53,1.35,7.02,1.35c2.97,0,5.67-0.68,8.11-2.05l-7.16-8.48
				l6.14-5.19l7.23,8.55c1.07-1.36,1.92-2.99,2.56-4.89c0.63-1.9,0.95-3.87,0.95-5.92c0-1.8-0.3-3.72-0.91-5.77
				c-0.61-2.05-1.74-4.09-3.4-6.14c-1.65-2.05-3.71-3.59-6.17-4.64c-2.46-1.04-4.91-1.57-7.34-1.57c-2.44,0-4.76,0.47-6.98,1.39
				c-2.22,0.93-4.15,2.21-5.81,3.87c-1.66,1.65-2.94,3.59-3.84,5.8C198.13,921.03,197.68,923.38,197.68,925.86z"/>
				<path d="M261.66,931.78v-31.41h9.13v30.46c0,2.19,0.34,4.3,1.02,6.35c0.68,2.05,1.94,3.67,3.76,4.86
				c1.83,1.2,4.08,1.79,6.76,1.79c3.55,0,6.35-1.07,8.4-3.21c2.05-2.14,3.06-5.41,3.06-9.79v-30.46h9.13v31.41
				c0,3.26-0.52,6.19-1.57,8.77c-1.05,2.58-2.51,4.73-4.38,6.43c-1.87,1.71-4.07,2.99-6.57,3.84c-2.51,0.86-5.2,1.28-8.07,1.28
				c-2.88,0-5.58-0.42-8.11-1.28c-2.54-0.85-4.74-2.13-6.61-3.84c-1.87-1.7-3.33-3.85-4.38-6.43
				C262.18,937.97,261.66,935.04,261.66,931.78z"/>
				<path d="M325.61,951.29v-50.91h9.13v50.91H325.61z"/>
				<path d="M354.32,940.55l6.87-4.3c1.22,2.34,2.92,4.21,5.12,5.62c2.19,1.42,4.75,2.13,7.67,2.13
				c1.66,0,3.17-0.26,4.53-0.77c1.36-0.51,2.39-1.34,3.07-2.49c0.68-1.15,1.02-2.28,1.02-3.4c0-1.61-0.6-3.03-1.79-4.28
				c-1.2-1.23-4.05-2.71-8.58-4.42c-3.56-1.36-6.33-2.67-8.33-3.94c-2-1.27-3.54-2.84-4.64-4.71c-1.09-1.88-1.64-4.13-1.64-6.76
				c0-1.51,0.28-3.05,0.84-4.64c0.56-1.58,1.49-3.04,2.77-4.38c1.29-1.33,2.97-2.45,5.04-3.36c2.07-0.9,4.44-1.35,7.12-1.35
				c3.6,0,6.72,0.76,9.35,2.27c2.63,1.51,4.75,3.51,6.36,5.99l-6.5,4.45c-1.95-3.02-4.97-4.52-9.06-4.52
				c-0.93,0-1.94,0.17-3.03,0.51c-1.09,0.34-2.02,0.96-2.77,1.86c-0.76,0.9-1.13,1.91-1.13,3.03c0,0.83,0.16,1.62,0.48,2.37
				c0.31,0.76,0.93,1.45,1.86,2.08c0.93,0.64,2.56,1.41,4.89,2.34c2.34,0.93,3.77,1.51,4.31,1.76c2.97,1.22,5.42,2.47,7.34,3.77
				c1.93,1.29,3.45,2.85,4.57,4.67c1.12,1.83,1.68,4.17,1.68,7.05c0,2.14-0.38,4.14-1.13,5.99c-0.75,1.85-1.87,3.45-3.36,4.79
				c-1.49,1.34-3.36,2.38-5.63,3.14c-2.26,0.76-4.83,1.13-7.7,1.13c-4.73,0-8.77-1.03-12.13-3.1
				C358.41,946.99,355.92,944.15,354.32,940.55z"/>
				<path d="M411.24,951.29v-50.91h9.13v50.91H411.24z"/>
				<path d="M455.03,951.29v-42.66h-13.8v-8.25h36.74v8.25h-13.8v42.66H455.03z"/>
				<path d="M498.48,951.29v-50.91h9.13v50.91H498.48z"/>
				<path d="M527.55,925.94c0-3.61,0.66-7.04,1.96-10.3c1.31-3.26,3.12-6.1,5.44-8.51c2.32-2.42,5.04-4.29,8.15-5.63
				c3.12-1.34,6.38-2.01,9.78-2.01c3.44,0,6.71,0.67,9.81,2.01c3.1,1.34,5.82,3.21,8.15,5.63c2.34,2.41,4.17,5.25,5.48,8.51
				s1.96,6.69,1.96,10.3c0,3.6-0.66,7.04-1.96,10.3c-1.3,3.26-3.13,6.09-5.48,8.48c-2.34,2.38-5.05,4.24-8.15,5.58
				c-3.1,1.34-6.37,2.01-9.81,2.01c-3.4,0-6.66-0.67-9.78-2.01c-3.12-1.34-5.83-3.2-8.15-5.58c-2.32-2.39-4.13-5.21-5.44-8.48
				C528.21,932.98,527.55,929.54,527.55,925.94z M536.02,925.94c0,2.48,0.42,4.84,1.27,7.08c0.86,2.24,2.04,4.18,3.58,5.81
				s3.34,2.91,5.4,3.84c2.07,0.93,4.27,1.38,6.62,1.38c2.29,0,4.48-0.46,6.57-1.38c2.09-0.93,3.9-2.22,5.43-3.87
				c1.54-1.66,2.73-3.6,3.58-5.81c0.85-2.21,1.27-4.57,1.27-7.05c0-2.49-0.42-4.83-1.27-7.06c-0.86-2.21-2.04-4.16-3.58-5.84
				c-1.54-1.68-3.35-2.98-5.43-3.91c-2.09-0.93-4.28-1.39-6.57-1.39c-2.3,0-4.49,0.47-6.57,1.39c-2.09,0.93-3.91,2.21-5.44,3.87
				c-1.54,1.65-2.73,3.6-3.58,5.84C536.44,921.09,536.02,923.45,536.02,925.94z"/>
				<path d="M599.56,951.29v-50.91h8.03l26.95,35.36v-35.36h8.85v50.91h-7.45l-27.54-36.02v36.02H599.56z"/>
				<path d="M661.09,940.55l6.87-4.3c1.22,2.34,2.92,4.21,5.11,5.62c2.2,1.42,4.75,2.13,7.67,2.13
				c1.66,0,3.17-0.26,4.53-0.77c1.36-0.51,2.38-1.34,3.07-2.49c0.68-1.15,1.02-2.28,1.02-3.4c0-1.61-0.6-3.03-1.79-4.28
				c-1.2-1.23-4.06-2.71-8.59-4.42c-3.55-1.36-6.33-2.67-8.33-3.94c-1.99-1.27-3.55-2.84-4.64-4.71c-1.09-1.88-1.64-4.13-1.64-6.76
				c0-1.51,0.27-3.05,0.84-4.64c0.56-1.58,1.48-3.04,2.78-4.38c1.29-1.33,2.96-2.45,5.04-3.36c2.07-0.9,4.45-1.35,7.13-1.35
				c3.6,0,6.72,0.76,9.35,2.27s4.75,3.51,6.36,5.99l-6.5,4.45c-1.95-3.02-4.97-4.52-9.07-4.52c-0.93,0-1.93,0.17-3.03,0.51
				c-1.1,0.34-2.03,0.96-2.78,1.86c-0.76,0.9-1.13,1.91-1.13,3.03c0,0.83,0.15,1.62,0.47,2.37c0.32,0.76,0.94,1.45,1.87,2.08
				c0.92,0.64,2.56,1.41,4.89,2.34c2.34,0.93,3.77,1.51,4.3,1.76c2.97,1.22,5.42,2.47,7.35,3.77c1.92,1.29,3.44,2.85,4.56,4.67
				c1.12,1.83,1.68,4.17,1.68,7.05c0,2.14-0.38,4.14-1.13,5.99c-0.76,1.85-1.88,3.45-3.36,4.79c-1.49,1.34-3.36,2.38-5.63,3.14
				s-4.83,1.13-7.71,1.13c-4.73,0-8.77-1.03-12.13-3.1C665.18,946.99,662.7,944.15,661.09,940.55z"/>
				<path d="M748.3,951.29v-50.91h9.13v42.66h20.24v8.25H748.3z"/>
				<path d="M799.46,951.29v-50.91h9.13v42.66h20.24v8.25H799.46z"/>
				<path d="M846.65,925.86c0-3.65,0.7-7.11,2.08-10.37c1.39-3.26,3.32-6.09,5.81-8.48c2.49-2.38,5.38-4.23,8.7-5.55
				c3.31-1.31,6.79-1.98,10.44-1.98c3.9,0,7.61,0.82,11.14,2.45c3.54,1.63,6.54,3.85,9.02,6.69l-6.21,5.33
				c-1.7-1.95-3.77-3.47-6.21-4.56c-2.43-1.1-5.02-1.65-7.74-1.65c-2.49,0-4.83,0.45-7.05,1.35c-2.22,0.91-4.15,2.19-5.78,3.84
				c-1.63,1.66-2.89,3.6-3.79,5.81c-0.91,2.21-1.36,4.59-1.36,7.12c0,2.54,0.45,4.91,1.36,7.13c0.9,2.21,2.16,4.14,3.79,5.77
				c1.63,1.64,3.55,2.9,5.78,3.8c2.21,0.9,4.56,1.35,7.05,1.35c2.73,0,5.34-0.56,7.81-1.68c2.49-1.12,4.58-2.68,6.29-4.67l6.14,5.33
				c-2.49,2.93-5.49,5.2-8.99,6.84c-3.51,1.63-7.26,2.44-11.25,2.44c-3.65,0-7.13-0.65-10.44-1.97c-3.32-1.31-6.21-3.16-8.7-5.52
				c-2.49-2.35-4.42-5.17-5.81-8.43C847.35,932.98,846.65,929.52,846.65,925.86z"/>
			</g>
		</g>
	</g>
</svg>
