<?xml version="1.0" encoding="UTF-8" standalone="no"?>
<!-- Created with Inkscape (http://www.inkscape.org/) -->

<svg width="336px" height="140px" alt="Vortex Acquisitions, LLC." viewBox="0 0 450 185" version="1.1" id="svg1" inkscape:version="1.4.2 (f4327f4, 2025-05-13)" sodipodi:docname="Vortex-logo-h.svg"
	xmlns:inkscape="http://www.inkscape.org/namespaces/inkscape"
	xmlns:sodipodi="http://sodipodi.sourceforge.net/DTD/sodipodi-0.dtd"
	xmlns="http://www.w3.org/2000/svg"
	xmlns:svg="http://www.w3.org/2000/svg">

	<defs id="defs1" />
	<g inkscape:label="Layer 1" inkscape:groupmode="layer" id="layer1">
		<g id="g30" transform="matrix(0.26458333,0,0,0.26458333,-51.241855,0.14287527)">
			<g id="g7" transform="translate(20,22)" class="va-1" fill="#2B6583">
				<g id="g6">
					<path d="m 346.26,314.12 c 6.46,17.11 11.13,29.47 12.24,32.17 2.4,5.82 9.62,16.14 30.56,16.14 9.06,0 20.7,-1.93 35.62,-7 l 0.33,-0.11 -0.13,-0.32 c -0.53,-1.33 -52.84,-133.56 -56.63,-143.96 -1.88,-5.15 -1.55,-10.61 0.92,-15.38 2.68,-5.18 7.71,-9 14.13,-10.75 7.19,-1.4 8.89,-1.63 8.91,-1.63 l 0.29,-0.04 V 172.46 H 275.59 v 11.26 l 0.34,-0.01 c 0.17,0.01 18.73,-0.07 28.61,22.47 6.9,15.73 27.85,71.22 41.72,107.94 z" id="path1" />

					<path d="m 473.81,186.94 c 4.02,10.06 46.26,115.77 47.88,119.28 l 0.16,0.35 0.32,-0.21 c 18.16,-11.82 42.03,-37.74 42.27,-38 l 0.14,-0.15 -0.08,-0.19 c -0.36,-0.9 -35.75,-90.47 -42.49,-110.27 -1.53,-4.49 -1.21,-8.53 0.94,-12.01 5.8,-9.38 23.1,-11.84 23.27,-11.86 l 0.29,-0.04 V 121.57 H 420.57 v 10.98 l 0.26,0.05 c 10.16,2.11 16.48,5.55 19.32,10.51 2.29,4 2.32,9.12 0.1,15.63 -4.21,12.36 -38.97,99.12 -39.32,100 l -0.05,0.12 20.48,55.17 z" id="path2" />

					<path d="m 377.88,471.14 c -6.11,-3.58 -5.74,-12.86 -5.73,-12.95 l 0.01,-0.23 -0.21,-0.09 c -19.31,-8.19 -34.06,-24.69 -34.2,-24.86 l -0.44,-0.49 -0.14,0.64 c -1.81,8.58 -7.9,28.61 -15.15,35.75 -7.38,7.28 -20.88,7.15 -21.01,7.15 l -0.34,-0.01 v 12.71 h 96.17 v -12.64 l -0.3,-0.03 c -0.12,0.01 -12.44,-1.3 -18.66,-4.95 z" id="path3" />

					<path d="m 604.97,361.13 c 20.94,-27.92 26.22,-48.72 28.63,-65.38 l 0.37,-2.54 -1,2.36 c -0.06,0.13 -5.65,13.13 -21.72,31.92 -14.83,17.35 -41.86,43.32 -86.43,68.54 -44.57,25.22 -86.34,33.64 -113.54,36.27 -29.46,2.84 -48.64,-0.32 -48.83,-0.35 l -0.35,-0.06 -0.03,0.35 c -0.02,0.16 -0.32,3.91 3.81,8.39 6.49,7.04 23.4,15.3 67.17,14.71 23.84,-1.09 58.9,-10.9 72.45,-17.37 -2.15,2.98 -8.99,11.76 -20.11,19.62 -12.51,8.84 -33.13,18.27 -60.39,13.01 l -0.84,-0.16 0.51,0.68 c 0.42,0.57 42.22,57.01 54.6,69.39 l 0.38,0.38 0.17,-0.52 c 0.09,-0.28 9.24,-28.19 29.24,-60.4 16.13,-25.98 34.36,-49.4 42.14,-59.4 1.97,-2.53 3.16,-4.06 3.47,-4.55 0.35,-0.55 2.33,-2.46 5.32,-5.35 9.2,-8.86 28.34,-27.34 44.98,-49.54 z" id="path4" />

					<path d="m 668.3,476.39 c -0.18,0.02 -18.94,1.86 -27.69,-18.35 -8.85,-20.44 -32.24,-77.41 -32.47,-77.98 l -0.21,-0.51 -0.35,0.42 c -0.18,0.22 -18.6,22.34 -40.18,41.6 l -0.18,0.16 0.09,0.22 c 0.06,0.14 6.01,14.43 9.9,28.95 2.23,8.32 1.68,15.48 -1.51,19.64 -1.81,2.36 -4.35,3.61 -7.34,3.61 h -9.04 v 14.31 h 109.35 v -12.11 z" id="path5" />

					<path d="m 591.56,218 c 5.45,9.65 4.91,22.59 -1.66,39.57 -15.25,39.39 -69,70.56 -91.96,83.88 l -0.28,0.16 c -25.61,14.85 -77.14,38.33 -117.19,38.33 -3.05,0 -6.05,-0.14 -8.95,-0.42 -22.11,-2.19 -34.24,-12.31 -40.52,-20.42 -6.81,-8.79 -8.41,-17.17 -8.43,-17.26 l -0.22,-1.17 -0.42,1.11 c -5.59,14.82 -4.81,31.3 2.19,46.42 6.24,13.47 15.39,21.85 21.24,23.93 8.18,3.02 18.22,4.5 29.81,4.5 33.74,0 80.56,-12.55 132.31,-36.06 27.67,-12.57 54.24,-30.7 76.85,-52.42 17.48,-16.8 32.45,-35.83 40.05,-50.91 6.11,-12.13 8.51,-24.77 6.93,-36.57 -1.38,-10.29 -5.71,-19.4 -12.18,-25.64 -28.64,-27.23 -69.73,-19.35 -70.14,-19.27 l -1.73,0.35 1.74,0.3 c 22.98,4 36.5,10.86 42.56,21.59 z" id="path6" />

				</g>

				<path d="m 479.81,40.11 249.18,142.6 V 471.36 L 479.81,617.48 231.01,471.37 V 182.69 L 479.81,40.11 M 479.79,5.71 201.17,165.4 V 488.45 L 479.8,652.08 758.84,488.45 V 165.4 Z" id="path7" />

			</g>

			<g id="g14" transform="translate(820.34153,-470.84605)" class="va-2" fill="#2B6583">
				<g id="g13">
					<path d="m 164.43,705.42 c -15.59,1.59 -20.32,3.63 -29.3,25.17 -7.32,17.46 -31.66,73.69 -49.14,116.32 H 73 C 66.39,829.22 35.67,751.45 25.75,727.41 18.43,710.4 15.36,706.78 0,705.41 v -8.39 h 72.06 l -0.24,8.39 c -17.24,2.27 -17.24,3.85 -13.47,13.38 7.32,19.05 25.04,65.76 33.08,85.71 14.17,-32.43 26.93,-63.26 32.36,-78 5.91,-15.65 4.26,-19.05 -15.59,-21.09 v -8.39 h 56.23 z" id="path8" />

					<path d="m 250.64,693.85 c 43.71,0 79.38,30.61 79.38,75.28 0,48.3 -35.91,78.68 -80.56,78.68 -47.25,0 -81.51,-33.11 -81.51,-76.87 0,-38.77 28.82,-77.09 82.69,-77.09 z m -3.55,9.98 c -24.1,0 -41.81,22.68 -41.81,62.81 0,38.32 15.83,71.2 47.72,71.2 22.44,0 39.93,-20.86 39.93,-62.36 0,-44.89 -18.43,-71.65 -45.84,-71.65 z" id="path9" />

					<path d="m 499.14,845.78 c -1.42,0 -4.25,0 -7.09,-0.23 -30,-1.36 -38.75,-7.48 -45.83,-17.01 -9.45,-12.47 -16.3,-26.3 -24.34,-39.91 -3.54,-6.12 -6.85,-7.48 -14.41,-7.48 l -4.72,-0.23 v 33.11 c 0,18.37 2.36,19.95 20.08,22 v 8.39 h -72.29 v -8.39 c 17.95,-1.81 20.08,-3.63 20.08,-22 v -86.85 c 0,-17.91 -2.36,-20.41 -20.08,-21.77 v -8.39 h 68.51 c 21.03,0 33.07,2.27 42.76,8.62 9.45,6.12 15.83,16.1 15.83,30.16 0,20.18 -13.94,30.84 -29.53,36.73 3.54,6.8 12.76,21.54 19.84,31.97 8.27,12.47 13.47,18.59 17.96,23.58 5.43,5.9 8.03,7.71 14.88,9.98 z m -90.01,-74.15 c 10.16,0 17.96,-1.59 23.15,-5.9 7.8,-6.35 11.1,-14.97 11.1,-26.53 0,-24.04 -14.41,-32.65 -27.64,-32.65 -6.38,0 -9.45,0.91 -10.86,2.27 -1.65,1.36 -2.13,4.08 -2.13,8.62 v 54.19 z" id="path10" />

					<path d="m 632.6,736.26 c -2.6,-10.43 -7.79,-19.05 -10.16,-22.22 -4.26,-4.76 -6.15,-6.58 -20.08,-6.58 h -15.12 v 106.57 c 0,19.05 2.36,20.41 23.39,22 v 8.39 H 532.2 v -8.39 c 20.08,-1.59 22.21,-2.95 22.21,-22 V 707.46 H 540 c -13.23,0 -17.01,2.04 -21.5,7.48 -3.31,4.31 -6.61,12.47 -9.69,21.54 h -8.98 c 1.65,-16.55 3.31,-34.24 3.78,-45.12 h 7.09 c 3.54,5.22 6.38,5.67 13.47,5.67 h 94.5 c 6.38,0 9.69,-1.36 13.7,-5.67 h 6.86 c 0.24,9.52 1.18,29.48 2.36,44.22 z" id="path11" />

					<path d="m 787.8,805.87 c -1.18,6.12 -7.8,32.2 -9.93,38.55 H 655.26 v -8.16 c 21.49,-2.04 22.91,-3.17 22.91,-22.22 v -86.62 c 0,-19.27 -2.84,-20.63 -18.9,-22 v -8.39 h 76.78 c 24.81,0 33.08,-0.23 36.39,-0.45 0.24,4.08 1.42,22.68 2.36,36.73 l -9.22,1.13 c -2.13,-7.71 -6.14,-17.01 -10.16,-21.09 -4.26,-4.54 -7.33,-5.9 -19.38,-5.9 h -15.36 c -8.97,0 -9.92,0.45 -9.92,8.16 V 763 h 23.15 c 13.23,0 15.59,-3.4 19.14,-19.5 h 9.21 v 50.57 h -9.21 c -3.78,-16.78 -5.67,-19.5 -19.38,-19.5 h -22.91 v 39 c 0,15.65 0.47,20.41 15.12,20.63 h 16.78 c 13.23,0 16.78,-1.59 21.97,-7.71 5.91,-6.58 10.64,-14.97 14.41,-22.68 z" id="path12" />

					<path d="m 882.98,844.42 v -8.39 c 16.07,-2.04 15.36,-5.67 11.34,-12.92 -2.36,-3.85 -7.32,-11.79 -24.33,-39.91 -10.87,16.1 -21.27,30.84 -25.52,38.77 -5.43,9.3 -4.25,11.79 12.29,14.06 v 8.39 h -58.84 v -8.39 c 13.24,-1.13 21.74,-4.76 28.6,-12.7 8.5,-9.98 23.62,-29.93 37.09,-49.43 -11.1,-17.91 -21.03,-33.79 -33.08,-52.38 -6.37,-10.2 -11.57,-14.29 -29.3,-16.1 v -8.39 h 73.71 v 8.39 c -14.17,1.59 -14.88,4.08 -11.57,10.66 3.78,7.03 11.34,19.27 21.03,34.24 7.08,-9.3 15.83,-22.68 21.49,-32.2 4.49,-7.94 2.6,-10.2 -12.05,-12.7 v -8.39 h 57.17 v 8.39 c -15.36,1.81 -22.44,4.08 -31.42,14.97 -8.03,10.2 -17.24,22.9 -28.82,38.55 13.7,20.86 24.58,38.32 38.52,58.5 9.45,14.74 14.41,17.01 30.71,18.59 v 8.39 z" id="path13" />

				</g>

			</g>

			<g id="g29" transform="translate(820.34153,-470.84605)" class="va-3" fill="#1B2D3B">
				<g id="g28">
					<path d="m 66.08,951.29 21.26,-50.91 h 7.74 l 21.26,50.91 h -9.64 l -4.16,-10.15 H 79.89 l -4.16,10.15 z M 82.73,933.6 H 99.68 L 91.2,912.86 Z" id="path14" />

					<path d="m 128.73,925.86 c 0,-3.65 0.69,-7.11 2.08,-10.37 1.39,-3.26 3.32,-6.09 5.81,-8.48 2.48,-2.38 5.38,-4.23 8.69,-5.55 3.31,-1.31 6.8,-1.98 10.45,-1.98 3.9,0 7.61,0.82 11.14,2.45 3.53,1.63 6.54,3.85 9.02,6.69 l -6.21,5.33 c -1.7,-1.95 -3.77,-3.47 -6.21,-4.56 -2.43,-1.1 -5.01,-1.65 -7.74,-1.65 -2.48,0 -4.83,0.45 -7.05,1.35 -2.22,0.91 -4.14,2.19 -5.77,3.84 -1.63,1.66 -2.9,3.6 -3.8,5.81 -0.9,2.21 -1.35,4.59 -1.35,7.12 0,2.54 0.45,4.91 1.35,7.13 0.9,2.21 2.17,4.14 3.8,5.77 1.63,1.64 3.55,2.9 5.77,3.8 2.21,0.9 4.56,1.35 7.05,1.35 2.73,0 5.34,-0.56 7.82,-1.68 2.48,-1.12 4.58,-2.68 6.28,-4.67 l 6.13,5.33 c -2.48,2.93 -5.48,5.2 -8.99,6.84 -3.51,1.63 -7.25,2.44 -11.25,2.44 -3.65,0 -7.13,-0.65 -10.45,-1.97 -3.32,-1.32 -6.21,-3.16 -8.69,-5.52 -2.48,-2.35 -4.42,-5.17 -5.81,-8.43 -1.38,-3.27 -2.07,-6.73 -2.07,-10.39 z" id="path15" />

					<path d="m 188.7,925.86 c 0,-3.6 0.69,-7.03 2.08,-10.3 1.39,-3.25 3.32,-6.09 5.81,-8.47 2.48,-2.39 5.38,-4.25 8.69,-5.59 3.31,-1.34 6.77,-2.01 10.38,-2.01 3.6,0 7.06,0.67 10.37,2.01 3.31,1.34 6.2,3.2 8.66,5.59 2.46,2.38 4.38,5.21 5.77,8.47 1.39,3.27 2.08,6.7 2.08,10.3 0,3.32 -0.61,6.46 -1.83,9.46 -1.22,3 -2.88,5.62 -4.97,7.86 l 4.97,5.99 -6.14,5.12 -5.11,-6.07 c -1.9,1.27 -4.04,2.23 -6.43,2.88 -2.39,0.66 -4.85,0.99 -7.38,0.99 -3.61,0 -7.06,-0.65 -10.38,-1.98 -3.31,-1.31 -6.21,-3.16 -8.69,-5.55 -2.48,-2.39 -4.42,-5.19 -5.81,-8.44 -1.38,-3.23 -2.07,-6.65 -2.07,-10.26 z m 8.98,0 c 0,2.49 0.45,4.84 1.35,7.06 0.9,2.21 2.18,4.14 3.84,5.77 1.65,1.63 3.58,2.9 5.77,3.8 2.19,0.9 4.53,1.35 7.02,1.35 2.97,0 5.67,-0.68 8.11,-2.05 l -7.16,-8.48 6.14,-5.19 7.23,8.55 c 1.07,-1.36 1.92,-2.99 2.56,-4.89 0.63,-1.9 0.95,-3.87 0.95,-5.92 0,-1.8 -0.3,-3.72 -0.91,-5.77 -0.61,-2.05 -1.74,-4.09 -3.4,-6.14 -1.65,-2.05 -3.71,-3.59 -6.17,-4.64 -2.46,-1.04 -4.91,-1.57 -7.34,-1.57 -2.44,0 -4.76,0.47 -6.98,1.39 -2.22,0.93 -4.15,2.21 -5.81,3.87 -1.66,1.65 -2.94,3.59 -3.84,5.8 -0.91,2.23 -1.36,4.58 -1.36,7.06 z" id="path16" />

					<path d="m 261.66,931.78 v -31.41 h 9.13 v 30.46 c 0,2.19 0.34,4.3 1.02,6.35 0.68,2.05 1.94,3.67 3.76,4.86 1.83,1.2 4.08,1.79 6.76,1.79 3.55,0 6.35,-1.07 8.4,-3.21 2.05,-2.14 3.06,-5.41 3.06,-9.79 v -30.46 h 9.13 v 31.41 c 0,3.26 -0.52,6.19 -1.57,8.77 -1.05,2.58 -2.51,4.73 -4.38,6.43 -1.87,1.71 -4.07,2.99 -6.57,3.84 -2.51,0.86 -5.2,1.28 -8.07,1.28 -2.88,0 -5.58,-0.42 -8.11,-1.28 -2.54,-0.85 -4.74,-2.13 -6.61,-3.84 -1.87,-1.7 -3.33,-3.85 -4.38,-6.43 -1.05,-2.58 -1.57,-5.51 -1.57,-8.77 z" id="path17" />

					<path d="m 325.61,951.29 v -50.91 h 9.13 v 50.91 z" id="path18" />

					<path d="m 354.32,940.55 6.87,-4.3 c 1.22,2.34 2.92,4.21 5.12,5.62 2.19,1.42 4.75,2.13 7.67,2.13 1.66,0 3.17,-0.26 4.53,-0.77 1.36,-0.51 2.39,-1.34 3.07,-2.49 0.68,-1.15 1.02,-2.28 1.02,-3.4 0,-1.61 -0.6,-3.03 -1.79,-4.28 -1.2,-1.23 -4.05,-2.71 -8.58,-4.42 -3.56,-1.36 -6.33,-2.67 -8.33,-3.94 -2,-1.27 -3.54,-2.84 -4.64,-4.71 -1.09,-1.88 -1.64,-4.13 -1.64,-6.76 0,-1.51 0.28,-3.05 0.84,-4.64 0.56,-1.58 1.49,-3.04 2.77,-4.38 1.29,-1.33 2.97,-2.45 5.04,-3.36 2.07,-0.9 4.44,-1.35 7.12,-1.35 3.6,0 6.72,0.76 9.35,2.27 2.63,1.51 4.75,3.51 6.36,5.99 l -6.5,4.45 c -1.95,-3.02 -4.97,-4.52 -9.06,-4.52 -0.93,0 -1.94,0.17 -3.03,0.51 -1.09,0.34 -2.02,0.96 -2.77,1.86 -0.76,0.9 -1.13,1.91 -1.13,3.03 0,0.83 0.16,1.62 0.48,2.37 0.31,0.76 0.93,1.45 1.86,2.08 0.93,0.64 2.56,1.41 4.89,2.34 2.34,0.93 3.77,1.51 4.31,1.76 2.97,1.22 5.42,2.47 7.34,3.77 1.93,1.29 3.45,2.85 4.57,4.67 1.12,1.83 1.68,4.17 1.68,7.05 0,2.14 -0.38,4.14 -1.13,5.99 -0.75,1.85 -1.87,3.45 -3.36,4.79 -1.49,1.34 -3.36,2.38 -5.63,3.14 -2.26,0.76 -4.83,1.13 -7.7,1.13 -4.73,0 -8.77,-1.03 -12.13,-3.1 -3.38,-2.09 -5.87,-4.93 -7.47,-8.53 z" id="path19" />

					<path d="m 411.24,951.29 v -50.91 h 9.13 v 50.91 z" id="path20" />

					<path d="m 455.03,951.29 v -42.66 h -13.8 v -8.25 h 36.74 v 8.25 h -13.8 v 42.66 z" id="path21" />

					<path d="m 498.48,951.29 v -50.91 h 9.13 v 50.91 z" id="path22" />

					<path d="m 527.55,925.94 c 0,-3.61 0.66,-7.04 1.96,-10.3 1.31,-3.26 3.12,-6.1 5.44,-8.51 2.32,-2.42 5.04,-4.29 8.15,-5.63 3.12,-1.34 6.38,-2.01 9.78,-2.01 3.44,0 6.71,0.67 9.81,2.01 3.1,1.34 5.82,3.21 8.15,5.63 2.34,2.41 4.17,5.25 5.48,8.51 1.31,3.26 1.96,6.69 1.96,10.3 0,3.6 -0.66,7.04 -1.96,10.3 -1.3,3.26 -3.13,6.09 -5.48,8.48 -2.34,2.38 -5.05,4.24 -8.15,5.58 -3.1,1.34 -6.37,2.01 -9.81,2.01 -3.4,0 -6.66,-0.67 -9.78,-2.01 -3.12,-1.34 -5.83,-3.2 -8.15,-5.58 -2.32,-2.39 -4.13,-5.21 -5.44,-8.48 -1.3,-3.26 -1.96,-6.7 -1.96,-10.3 z m 8.47,0 c 0,2.48 0.42,4.84 1.27,7.08 0.86,2.24 2.04,4.18 3.58,5.81 1.54,1.63 3.34,2.91 5.4,3.84 2.07,0.93 4.27,1.38 6.62,1.38 2.29,0 4.48,-0.46 6.57,-1.38 2.09,-0.93 3.9,-2.22 5.43,-3.87 1.54,-1.66 2.73,-3.6 3.58,-5.81 0.85,-2.21 1.27,-4.57 1.27,-7.05 0,-2.49 -0.42,-4.83 -1.27,-7.06 -0.86,-2.21 -2.04,-4.16 -3.58,-5.84 -1.54,-1.68 -3.35,-2.98 -5.43,-3.91 -2.09,-0.93 -4.28,-1.39 -6.57,-1.39 -2.3,0 -4.49,0.47 -6.57,1.39 -2.09,0.93 -3.91,2.21 -5.44,3.87 -1.54,1.65 -2.73,3.6 -3.58,5.84 -0.86,2.25 -1.28,4.61 -1.28,7.1 z" id="path23" />

					<path d="m 599.56,951.29 v -50.91 h 8.03 l 26.95,35.36 v -35.36 h 8.85 v 50.91 h -7.45 L 608.4,915.27 v 36.02 z" id="path24" />

					<path d="m 661.09,940.55 6.87,-4.3 c 1.22,2.34 2.92,4.21 5.11,5.62 2.2,1.42 4.75,2.13 7.67,2.13 1.66,0 3.17,-0.26 4.53,-0.77 1.36,-0.51 2.38,-1.34 3.07,-2.49 0.68,-1.15 1.02,-2.28 1.02,-3.4 0,-1.61 -0.6,-3.03 -1.79,-4.28 -1.2,-1.23 -4.06,-2.71 -8.59,-4.42 -3.55,-1.36 -6.33,-2.67 -8.33,-3.94 -1.99,-1.27 -3.55,-2.84 -4.64,-4.71 -1.09,-1.88 -1.64,-4.13 -1.64,-6.76 0,-1.51 0.27,-3.05 0.84,-4.64 0.56,-1.58 1.48,-3.04 2.78,-4.38 1.29,-1.33 2.96,-2.45 5.04,-3.36 2.07,-0.9 4.45,-1.35 7.13,-1.35 3.6,0 6.72,0.76 9.35,2.27 2.63,1.51 4.75,3.51 6.36,5.99 l -6.5,4.45 c -1.95,-3.02 -4.97,-4.52 -9.07,-4.52 -0.93,0 -1.93,0.17 -3.03,0.51 -1.1,0.34 -2.03,0.96 -2.78,1.86 -0.76,0.9 -1.13,1.91 -1.13,3.03 0,0.83 0.15,1.62 0.47,2.37 0.32,0.76 0.94,1.45 1.87,2.08 0.92,0.64 2.56,1.41 4.89,2.34 2.34,0.93 3.77,1.51 4.3,1.76 2.97,1.22 5.42,2.47 7.35,3.77 1.92,1.29 3.44,2.85 4.56,4.67 1.12,1.83 1.68,4.17 1.68,7.05 0,2.14 -0.38,4.14 -1.13,5.99 -0.76,1.85 -1.88,3.45 -3.36,4.79 -1.49,1.34 -3.36,2.38 -5.63,3.14 -2.27,0.76 -4.83,1.13 -7.71,1.13 -4.73,0 -8.77,-1.03 -12.13,-3.1 -3.34,-2.09 -5.82,-4.93 -7.43,-8.53 z" id="path25" />

					<path d="m 748.3,951.29 v -50.91 h 9.13 v 42.66 h 20.24 v 8.25 z" id="path26" />

					<path d="m 799.46,951.29 v -50.91 h 9.13 v 42.66 h 20.24 v 8.25 z" id="path27" />

					<path d="m 846.65,925.86 c 0,-3.65 0.7,-7.11 2.08,-10.37 1.39,-3.26 3.32,-6.09 5.81,-8.48 2.49,-2.38 5.38,-4.23 8.7,-5.55 3.31,-1.31 6.79,-1.98 10.44,-1.98 3.9,0 7.61,0.82 11.14,2.45 3.54,1.63 6.54,3.85 9.02,6.69 l -6.21,5.33 c -1.7,-1.95 -3.77,-3.47 -6.21,-4.56 -2.43,-1.1 -5.02,-1.65 -7.74,-1.65 -2.49,0 -4.83,0.45 -7.05,1.35 -2.22,0.91 -4.15,2.19 -5.78,3.84 -1.63,1.66 -2.89,3.6 -3.79,5.81 -0.91,2.21 -1.36,4.59 -1.36,7.12 0,2.54 0.45,4.91 1.36,7.13 0.9,2.21 2.16,4.14 3.79,5.77 1.63,1.64 3.55,2.9 5.78,3.8 2.21,0.9 4.56,1.35 7.05,1.35 2.73,0 5.34,-0.56 7.81,-1.68 2.49,-1.12 4.58,-2.68 6.29,-4.67 l 6.14,5.33 c -2.49,2.93 -5.49,5.2 -8.99,6.84 -3.51,1.63 -7.26,2.44 -11.25,2.44 -3.65,0 -7.13,-0.65 -10.44,-1.97 -3.32,-1.31 -6.21,-3.16 -8.7,-5.52 -2.49,-2.35 -4.42,-5.17 -5.81,-8.43 -1.38,-3.27 -2.08,-6.73 -2.08,-10.39 z" id="path28" />

				</g>

			</g>

		</g>
	</g>
</svg>
